<mxfile host="app.diagrams.net" modified="2024-01-31T16:02:31.849Z" agent="Mozilla/5.0 (Macintosh; Intel Mac OS X 10_15_7) AppleWebKit/537.36 (KHTML, like Gecko) Chrome/121.0.0.0 Safari/537.36" etag="WF1hJ5XEYpgJKfVCLlsr" version="22.1.18" type="github">
  <diagram id="C5RBs43oDa-KdzZeNtuy" name="Page-1">
    <mxGraphModel dx="1026" dy="631" grid="1" gridSize="10" guides="1" tooltips="1" connect="1" arrows="1" fold="1" page="1" pageScale="1" pageWidth="827" pageHeight="1169" math="0" shadow="0">
      <root>
        <mxCell id="WIyWlLk6GJQsqaUBKTNV-0" />
        <mxCell id="WIyWlLk6GJQsqaUBKTNV-1" parent="WIyWlLk6GJQsqaUBKTNV-0" />
        <mxCell id="Q0DErnlp9IKeCKkZqTuc-17" value="" style="edgeStyle=orthogonalEdgeStyle;rounded=0;orthogonalLoop=1;jettySize=auto;html=1;" edge="1" parent="WIyWlLk6GJQsqaUBKTNV-1" source="Q0DErnlp9IKeCKkZqTuc-5" target="Q0DErnlp9IKeCKkZqTuc-16">
          <mxGeometry relative="1" as="geometry" />
        </mxCell>
        <mxCell id="Q0DErnlp9IKeCKkZqTuc-5" value="inicio" style="ellipse;whiteSpace=wrap;html=1;aspect=fixed;" vertex="1" parent="WIyWlLk6GJQsqaUBKTNV-1">
          <mxGeometry x="334" y="40" width="80" height="80" as="geometry" />
        </mxCell>
        <mxCell id="Q0DErnlp9IKeCKkZqTuc-9" value="" style="edgeStyle=orthogonalEdgeStyle;rounded=0;orthogonalLoop=1;jettySize=auto;html=1;" edge="1" parent="WIyWlLk6GJQsqaUBKTNV-1" source="Q0DErnlp9IKeCKkZqTuc-6" target="Q0DErnlp9IKeCKkZqTuc-8">
          <mxGeometry relative="1" as="geometry" />
        </mxCell>
        <mxCell id="Q0DErnlp9IKeCKkZqTuc-6" value="entrada&lt;br&gt;(leer horas)" style="whiteSpace=wrap;html=1;" vertex="1" parent="WIyWlLk6GJQsqaUBKTNV-1">
          <mxGeometry x="314" y="250" width="120" height="60" as="geometry" />
        </mxCell>
        <mxCell id="Q0DErnlp9IKeCKkZqTuc-11" value="" style="edgeStyle=orthogonalEdgeStyle;rounded=0;orthogonalLoop=1;jettySize=auto;html=1;" edge="1" parent="WIyWlLk6GJQsqaUBKTNV-1" source="Q0DErnlp9IKeCKkZqTuc-8" target="Q0DErnlp9IKeCKkZqTuc-10">
          <mxGeometry relative="1" as="geometry" />
        </mxCell>
        <mxCell id="Q0DErnlp9IKeCKkZqTuc-12" value="NO" style="edgeLabel;html=1;align=center;verticalAlign=middle;resizable=0;points=[];" vertex="1" connectable="0" parent="Q0DErnlp9IKeCKkZqTuc-11">
          <mxGeometry x="-0.6838" y="1" relative="1" as="geometry">
            <mxPoint as="offset" />
          </mxGeometry>
        </mxCell>
        <mxCell id="Q0DErnlp9IKeCKkZqTuc-14" value="" style="edgeStyle=orthogonalEdgeStyle;rounded=0;orthogonalLoop=1;jettySize=auto;html=1;" edge="1" parent="WIyWlLk6GJQsqaUBKTNV-1" source="Q0DErnlp9IKeCKkZqTuc-8" target="Q0DErnlp9IKeCKkZqTuc-13">
          <mxGeometry relative="1" as="geometry" />
        </mxCell>
        <mxCell id="Q0DErnlp9IKeCKkZqTuc-15" value="SI" style="edgeLabel;html=1;align=center;verticalAlign=middle;resizable=0;points=[];" vertex="1" connectable="0" parent="Q0DErnlp9IKeCKkZqTuc-14">
          <mxGeometry x="-0.708" y="2" relative="1" as="geometry">
            <mxPoint as="offset" />
          </mxGeometry>
        </mxCell>
        <mxCell id="Q0DErnlp9IKeCKkZqTuc-8" value="horas &amp;lt;= 35" style="rhombus;whiteSpace=wrap;html=1;" vertex="1" parent="WIyWlLk6GJQsqaUBKTNV-1">
          <mxGeometry x="314" y="340" width="120" height="80" as="geometry" />
        </mxCell>
        <mxCell id="Q0DErnlp9IKeCKkZqTuc-20" value="" style="edgeStyle=orthogonalEdgeStyle;rounded=0;orthogonalLoop=1;jettySize=auto;html=1;" edge="1" parent="WIyWlLk6GJQsqaUBKTNV-1" source="Q0DErnlp9IKeCKkZqTuc-10" target="Q0DErnlp9IKeCKkZqTuc-19">
          <mxGeometry relative="1" as="geometry" />
        </mxCell>
        <mxCell id="Q0DErnlp9IKeCKkZqTuc-10" value="dif_horas = horas - 35" style="whiteSpace=wrap;html=1;" vertex="1" parent="WIyWlLk6GJQsqaUBKTNV-1">
          <mxGeometry x="133" y="440" width="136" height="60" as="geometry" />
        </mxCell>
        <mxCell id="Q0DErnlp9IKeCKkZqTuc-26" value="" style="edgeStyle=orthogonalEdgeStyle;rounded=0;orthogonalLoop=1;jettySize=auto;html=1;" edge="1" parent="WIyWlLk6GJQsqaUBKTNV-1" source="Q0DErnlp9IKeCKkZqTuc-13" target="Q0DErnlp9IKeCKkZqTuc-25">
          <mxGeometry relative="1" as="geometry">
            <Array as="points">
              <mxPoint x="560" y="910" />
              <mxPoint x="386" y="910" />
            </Array>
          </mxGeometry>
        </mxCell>
        <mxCell id="Q0DErnlp9IKeCKkZqTuc-13" value="sueldo = horas * tarifa" style="whiteSpace=wrap;html=1;" vertex="1" parent="WIyWlLk6GJQsqaUBKTNV-1">
          <mxGeometry x="494" y="440" width="120" height="60" as="geometry" />
        </mxCell>
        <mxCell id="Q0DErnlp9IKeCKkZqTuc-18" style="edgeStyle=orthogonalEdgeStyle;rounded=0;orthogonalLoop=1;jettySize=auto;html=1;exitX=0.5;exitY=1;exitDx=0;exitDy=0;entryX=0.5;entryY=0;entryDx=0;entryDy=0;" edge="1" parent="WIyWlLk6GJQsqaUBKTNV-1" source="Q0DErnlp9IKeCKkZqTuc-16" target="Q0DErnlp9IKeCKkZqTuc-6">
          <mxGeometry relative="1" as="geometry" />
        </mxCell>
        <mxCell id="Q0DErnlp9IKeCKkZqTuc-16" value="tarifa = 40.5&lt;br&gt;&lt;br&gt;impuesto = 0" style="whiteSpace=wrap;html=1;" vertex="1" parent="WIyWlLk6GJQsqaUBKTNV-1">
          <mxGeometry x="314" y="150" width="120" height="60" as="geometry" />
        </mxCell>
        <mxCell id="Q0DErnlp9IKeCKkZqTuc-22" value="" style="edgeStyle=orthogonalEdgeStyle;rounded=0;orthogonalLoop=1;jettySize=auto;html=1;" edge="1" parent="WIyWlLk6GJQsqaUBKTNV-1" source="Q0DErnlp9IKeCKkZqTuc-19" target="Q0DErnlp9IKeCKkZqTuc-21">
          <mxGeometry relative="1" as="geometry" />
        </mxCell>
        <mxCell id="Q0DErnlp9IKeCKkZqTuc-19" value="tarifa_extra = tarifa * 1.5" style="whiteSpace=wrap;html=1;" vertex="1" parent="WIyWlLk6GJQsqaUBKTNV-1">
          <mxGeometry x="132" y="555" width="138" height="60" as="geometry" />
        </mxCell>
        <mxCell id="Q0DErnlp9IKeCKkZqTuc-24" value="" style="edgeStyle=orthogonalEdgeStyle;rounded=0;orthogonalLoop=1;jettySize=auto;html=1;" edge="1" parent="WIyWlLk6GJQsqaUBKTNV-1" source="Q0DErnlp9IKeCKkZqTuc-21" target="Q0DErnlp9IKeCKkZqTuc-23">
          <mxGeometry relative="1" as="geometry" />
        </mxCell>
        <mxCell id="Q0DErnlp9IKeCKkZqTuc-21" value="salario_extra = tarifa_extra * dif_horas" style="whiteSpace=wrap;html=1;" vertex="1" parent="WIyWlLk6GJQsqaUBKTNV-1">
          <mxGeometry x="76.5" y="670" width="249" height="60" as="geometry" />
        </mxCell>
        <mxCell id="Q0DErnlp9IKeCKkZqTuc-27" style="edgeStyle=orthogonalEdgeStyle;rounded=0;orthogonalLoop=1;jettySize=auto;html=1;exitX=0.5;exitY=1;exitDx=0;exitDy=0;entryX=0.5;entryY=0;entryDx=0;entryDy=0;" edge="1" parent="WIyWlLk6GJQsqaUBKTNV-1" source="Q0DErnlp9IKeCKkZqTuc-23" target="Q0DErnlp9IKeCKkZqTuc-25">
          <mxGeometry relative="1" as="geometry" />
        </mxCell>
        <mxCell id="Q0DErnlp9IKeCKkZqTuc-23" value="sueldo = (35*tarifa) + salario_extra" style="whiteSpace=wrap;html=1;" vertex="1" parent="WIyWlLk6GJQsqaUBKTNV-1">
          <mxGeometry x="86.5" y="790" width="229" height="60" as="geometry" />
        </mxCell>
        <mxCell id="Q0DErnlp9IKeCKkZqTuc-29" value="" style="edgeStyle=orthogonalEdgeStyle;rounded=0;orthogonalLoop=1;jettySize=auto;html=1;" edge="1" parent="WIyWlLk6GJQsqaUBKTNV-1" source="Q0DErnlp9IKeCKkZqTuc-25" target="Q0DErnlp9IKeCKkZqTuc-28">
          <mxGeometry relative="1" as="geometry" />
        </mxCell>
        <mxCell id="Q0DErnlp9IKeCKkZqTuc-25" value="sueldo_mes = sueldo * 4" style="whiteSpace=wrap;html=1;" vertex="1" parent="WIyWlLk6GJQsqaUBKTNV-1">
          <mxGeometry x="300" y="970" width="174.5" height="60" as="geometry" />
        </mxCell>
        <mxCell id="Q0DErnlp9IKeCKkZqTuc-31" value="" style="edgeStyle=orthogonalEdgeStyle;rounded=0;orthogonalLoop=1;jettySize=auto;html=1;" edge="1" parent="WIyWlLk6GJQsqaUBKTNV-1" source="Q0DErnlp9IKeCKkZqTuc-28" target="Q0DErnlp9IKeCKkZqTuc-30">
          <mxGeometry relative="1" as="geometry">
            <Array as="points">
              <mxPoint x="166" y="1120" />
            </Array>
          </mxGeometry>
        </mxCell>
        <mxCell id="Q0DErnlp9IKeCKkZqTuc-35" value="NO" style="edgeLabel;html=1;align=center;verticalAlign=middle;resizable=0;points=[];" vertex="1" connectable="0" parent="Q0DErnlp9IKeCKkZqTuc-31">
          <mxGeometry x="-0.6231" y="3" relative="1" as="geometry">
            <mxPoint as="offset" />
          </mxGeometry>
        </mxCell>
        <mxCell id="Q0DErnlp9IKeCKkZqTuc-33" value="" style="edgeStyle=orthogonalEdgeStyle;rounded=0;orthogonalLoop=1;jettySize=auto;html=1;" edge="1" parent="WIyWlLk6GJQsqaUBKTNV-1" source="Q0DErnlp9IKeCKkZqTuc-28" target="Q0DErnlp9IKeCKkZqTuc-32">
          <mxGeometry relative="1" as="geometry" />
        </mxCell>
        <mxCell id="Q0DErnlp9IKeCKkZqTuc-34" value="SI" style="edgeLabel;html=1;align=center;verticalAlign=middle;resizable=0;points=[];" vertex="1" connectable="0" parent="Q0DErnlp9IKeCKkZqTuc-33">
          <mxGeometry x="-0.651" relative="1" as="geometry">
            <mxPoint as="offset" />
          </mxGeometry>
        </mxCell>
        <mxCell id="Q0DErnlp9IKeCKkZqTuc-28" value="sueldo_mes &amp;gt; 20000" style="rhombus;whiteSpace=wrap;html=1;" vertex="1" parent="WIyWlLk6GJQsqaUBKTNV-1">
          <mxGeometry x="305.88" y="1080" width="162.75" height="80" as="geometry" />
        </mxCell>
        <mxCell id="Q0DErnlp9IKeCKkZqTuc-43" value="" style="edgeStyle=orthogonalEdgeStyle;rounded=0;orthogonalLoop=1;jettySize=auto;html=1;" edge="1" parent="WIyWlLk6GJQsqaUBKTNV-1" source="Q0DErnlp9IKeCKkZqTuc-30" target="Q0DErnlp9IKeCKkZqTuc-42">
          <mxGeometry relative="1" as="geometry" />
        </mxCell>
        <mxCell id="Q0DErnlp9IKeCKkZqTuc-30" value="Imprimir &quot;Tu sueldo Neto es: &quot;, sueldo_mes" style="whiteSpace=wrap;html=1;" vertex="1" parent="WIyWlLk6GJQsqaUBKTNV-1">
          <mxGeometry x="16.489999999999995" y="1210" width="299.01" height="60" as="geometry" />
        </mxCell>
        <mxCell id="Q0DErnlp9IKeCKkZqTuc-44" style="edgeStyle=orthogonalEdgeStyle;rounded=0;orthogonalLoop=1;jettySize=auto;html=1;exitX=0;exitY=0.5;exitDx=0;exitDy=0;entryX=0.5;entryY=0;entryDx=0;entryDy=0;" edge="1" parent="WIyWlLk6GJQsqaUBKTNV-1" source="Q0DErnlp9IKeCKkZqTuc-32" target="Q0DErnlp9IKeCKkZqTuc-42">
          <mxGeometry relative="1" as="geometry" />
        </mxCell>
        <mxCell id="Q0DErnlp9IKeCKkZqTuc-32" value="Imprimir &quot;Tu sueldo al mes es: &quot;, sueldo_mes,&quot;Valor de Impuesto: &quot;, Impuesto, &quot; El salario Neto es: &quot;,Salario_total" style="whiteSpace=wrap;html=1;" vertex="1" parent="WIyWlLk6GJQsqaUBKTNV-1">
          <mxGeometry x="500" y="1210" width="300.01" height="60" as="geometry" />
        </mxCell>
        <mxCell id="Q0DErnlp9IKeCKkZqTuc-42" value="fin" style="ellipse;whiteSpace=wrap;html=1;" vertex="1" parent="WIyWlLk6GJQsqaUBKTNV-1">
          <mxGeometry x="374.005" y="1360" width="80" height="80" as="geometry" />
        </mxCell>
      </root>
    </mxGraphModel>
  </diagram>
</mxfile>
